# xmcd
#
# Track frame offsets:
#	150
#	12196
#	25403
#	37455
#	52402
#	65206
#	80326
#	96893
#	112857
#	124746
#	143563
#	160001
#	171153
#	185620
#	196604
#	209343
#	224584
#
# Disc length: 3256 seconds
#
# Revision: 1
# Processed by: cddbd v1.5.2PL0 Copyright (c) Steve Scherf et al.
# Submitted via: audiograbber 1.83.01
#
DISCID=fa0cb611
DTITLE=Various Artist - All Time Classic Country Tearjerkers - CD3
DYEAR=2003
DGENRE=Country
TTITLE0=Charlie Rich - The Most Beautiful Girl
TTITLE1=Crystal Gayle - Talking In Your Sleep
TTITLE2=Glen Campbell - I Can't Help It
TTITLE3=Dolly Parton, Tammy Wynette and Loretta Lynn - Please Help Me I'm Falling
TTITLE3=(In LOve With You)
TTITLE4=Charley Pride - Crystal Chandaliers
TTITLE5=Connie Francis - He Thinks I Still Care
TTITLE6=Gram Parsons - Love Hurts
TTITLE7=Willie Nelson - Always On My Mind
TTITLE8=The Everly Brothers - Let It Be Me
TTITLE9=LeAnn Rimes - How Do I Live
TTITLE10=Merle Haggard - Hungry Eyes
TTITLE11=The Judds - Don't Be Cruel
TTITLE12=Dwight Yoakam - Heartaches By The Number
TTITLE13=Waylon Jennings - Dreaming My Dreams With You
TTITLE14=Patsy Cline - I Fall To Pieces
TTITLE15=Elvis Costello and The Attractions - I'm Your Toy
TTITLE16=Marty Robbins - El Paso
EXTD=
EXTT0=
EXTT1=
EXTT2=
EXTT3=
EXTT4=
EXTT5=
EXTT6=
EXTT7=
EXTT8=
EXTT9=
EXTT10=
EXTT11=
EXTT12=
EXTT13=
EXTT14=
EXTT15=
EXTT16=
PLAYORDER=
